<?xml version="1.0" encoding="iso-8859-1"?>
<!-- Generator: Adobe Illustrator 19.0.0, SVG Export Plug-In . SVG Version: 6.00 Build 0)  -->
<svg version="1.1" id="Capa_1" xmlns="http://www.w3.org/2000/svg" xmlns:xlink="http://www.w3.org/1999/xlink" x="0px" y="0px"
	 viewBox="0 0 512.002 512.002" style="enable-background:new 0 0 512.002 512.002;" xml:space="preserve">
<path style="fill:#E6E6DC;" d="M133.961,54.667c0.105,13.985-2.847,32.509-4.451,47.555c-3.762,35.288-1.188,69.907-2.537,105.181
	c-2.058,53.803-5.272,107.423-3.969,161.287c0.419,17.325,3.466,33.898,12.65,48.878c10.707,17.465,33.763,32.696,52.174,40.112
	c16.016,6.451,33.414,9.903,49.835,15.332c6.227,2.059,12.383,4.343,18.267,7.284c12.009,6.004,24.211,11.497,36.778,16.26
	c16.706,6.331,38.352,9.954,56.302,7.455c35.011-4.875,25.817-54.678,27.062-79.345c1.473-29.182,1.797-59.222,0.412-88.41
	c-1.365-28.798-0.181-56.56,2.147-85.272c2.393-29.519,8.129-58.757,10.585-88.255c0.962-11.561,6.514-32.492-1.716-42.501
	c-2.183-2.655-6.197-2.933-8.255-5.399c-2.561-3.067-1.645-7.239-1.645-11.218c0.004-21.846,3.069-43.637,3.294-65.512
	c0.094-9.151,1.44-16.16-2.469-24.502c-3.785-8.079-3.668-6.42-12.042-6.722c-9.716-0.351-16.919,0.32-26.687,2.466
	c-12.77,2.805-25.479,5.546-38.193,8.676c-30.422,7.488-61.386,9.962-92.48,14.028c-14.274,1.867-27.97,3.5-42.025,6.845
	C155.494,41.627,141.405,44.09,133.961,54.667z"/>
<path style="fill:#E72437;" d="M231.857,211.411c-8.594-0.822-21.599,7.095-28.602,11.274c-9.722,5.801-18.737,12.397-24.537,22.26
	c-16.715,28.426-15.059,65.063,4.851,91.762c20.154,27.027,58.927,44.646,91.574,29.873c33.12-14.987,47.353-60.695,38.401-93.171
	c-4.55-16.506-15.07-34.913-28.59-45.648c-7.939-6.304-17.502-13.061-27.204-16.251c-4.425-1.455-10.118-3.004-14.758-3.325
	C238.26,207.858,232.747,211.206,231.857,211.411z"/>
<path style="fill:#BDBEB5;" d="M364.402,110.215c-17.745-8.619-38.307-9.387-57.625-12.115c-25.276-3.57-48.919-9.591-72.443-19.571
	c-17.812-7.556-35.652-12.107-54.517-15.955c-4.88-0.995-38.139-5.047-30.76-15.337c4.376-6.102,20.65-6.175,27.094-7.407
	c18.021-3.444,35.724-8.381,53.912-11.012c29.946-4.333,60.253-7.285,89.864-13.597c17.767-3.787,55.183-24.598,62.074,3.84
	c1.876,7.742,1.1,16.049,1.1,23.97c0,11.683,0.537,23.53-0.124,35.189c-0.446,7.864-0.857,18.287-4.784,25.377
	C376.476,106.697,367.853,114.012,364.402,110.215z"/>
<path style="fill:#FFC468;" d="M230.207,209.211c-0.115-10.481,3.345-30.704,12.378-37.729c8.292-6.449,19.214-0.008,23.382,8.328
	c2.622,5.245,6.671,29.8,1.649,32.162c-2.991,1.407-10.564-3.01-13.909-3.325C246.689,207.985,237.797,206.861,230.207,209.211z"/>
<path style="fill:#FFFFFF;" d="M236.257,270.808c-4.35-5.763-13.48-13.484-20.471-7.85c-14.382,11.589-8.107,30.742-0.853,44.821
	c4.06,7.881,8.389,21.55,16.652,25.723c11.475,5.794,26.978-12.954,32.608-21.431c8.289-12.478,23.39-39.46,6.848-51.468
	c-4.891-3.551-12.846-3.818-18.407-2.045C247.885,260.071,236.738,266.345,236.257,270.808z"/>
<path d="M386.474,112.808c2.309-6.896,1.802-14.49,2.631-21.794c0.816-7.197,1.845-14.42,2.392-21.634
	c1.18-15.582,1.328-31.964-0.517-47.477c-1.455-12.24-6.383-23.327-20.728-21.754c-8.988,0.986-19.855,2.548-29.445,5.693
	c-11.171,1.374-22.352,2.578-33.49,4.209c-26.788,3.923-53.47,6.895-80.05,12.342c-26.472,5.425-54.014,9.579-79.644,18.294
	c-22.172,7.538-23.4,30.34-25.397,50.764c-2.665,27.257-6.116,54.146-6.666,81.587c-0.562,28.061-0.423,56.126-1.032,84.189
	c-0.571,26.304-1.654,52.763-0.827,79.078c0.362,11.513,0.56,22.977,0.753,34.5c0.199,11.865-0.451,27.061,4.727,38.048
	c9.571,20.309,32.983,33.088,52.247,42.189c24.336,11.496,49.924,21.301,75.361,30.093c22.463,7.764,45.493,14.315,68.175,21.552
	c17.335,5.53,45.736,18.49,58.6-1.231c5.625-8.622,6.166-19.643,7.314-29.596c1.692-14.678,2.386-29.395,3.418-44.13
	c1.925-27.501,1.507-54.936,1.431-82.482c-0.153-55.036,1.902-110.018,7.908-164.768
	C395.952,159.354,406.806,127.707,386.474,112.808z M166.249,50.185c6.783-1.844,13.647-3.395,20.518-4.874
	c13.468-2.899,26.937-5.629,40.362-8.717c25.592-5.886,51.47-9.353,77.314-13.705c13.59-2.288,27.193-4.958,40.68-7.806
	c3.091-0.653,6.221-1.252,9.364-1.847c3.929-0.415,7.783-0.967,11.389-1.538c9.887-1.565,11.924,4.357,12.549,12.582
	c0.588,7.745,0.244,15.566,0.177,23.358c-0.104,12.086-1.191,24.027-2.786,35.995c-0.704,5.281-3.097,13.961-3.259,21.486
	c-19.568-8.36-43.08-10.416-62.995-14.854c-1.384-0.308-2.777-0.607-4.163-0.913c0.388-0.038,0.777-0.081,1.161-0.115
	c12.728-1.128,24.943-1.533,36.676-6.809c2.411-1.084,0.826-4.176-1.197-4.42c-6.46-0.778-13.288,1.197-19.802,1.885
	c-6.696,0.708-13.427,1.15-20.102,2.049c-6.143,0.828-12.75,1.356-19.148,2.504c-15.077-3.283-30.168-6.624-45.087-10.44
	c2.328-0.332,4.523-0.624,6.348-0.908c8.623-1.342,17.314-2.44,25.962-3.717c20.149-2.974,42.394-4.912,61.543-12.082
	c2.583-0.967,2.514-5.692-0.713-5.266c-21.728,2.864-43.191,6.879-64.839,10.27c-11.885,1.862-28.287,2.923-40.363,8.504
	c-0.304-0.084-0.611-0.161-0.914-0.246c-13.404-3.734-26.716-7.847-40.137-11.544c-9-2.479-18.514-4.233-27.715-6.585
	C160.264,51.599,163.499,50.933,166.249,50.185z M382.584,144.461c-1.757,24.632-5.951,49.135-7.922,73.783
	c-1.973,24.675-2.354,49.4-3.94,74.079c-3.125,48.638,0.481,97.509-2.714,146.241c-0.774,11.816-1.448,23.558-2.9,35.317
	c-0.69,5.597-0.956,13.464-4.139,18.502c-4.462,7.059-16.44,2.909-23.45,1.282c-21.063-4.892-42.587-12.939-63.001-20.105
	c-20.818-7.307-41.697-14.234-62.425-22.014c-22.429-8.418-47.353-17.331-65.561-33.484c-9.097-8.07-14.651-15.743-15.857-28.031
	c-1.283-13.075-0.761-26.12-1.026-39.225c-0.456-22.566-0.812-45.105-0.824-67.701c-0.012-23.895,1.409-47.782,1.372-71.683
	c-0.04-25.646-0.312-51.371,1.891-76.95c1.13-13.12,3.151-26.186,4.419-39.313c0.814-8.431,0.584-23.214,5.298-32.493
	c9.36,3.297,19.541,4.774,29.097,7.523c11.395,3.278,22.829,6.808,34.316,9.775c22.04,5.693,44.071,11.402,66.329,16.306
	c22.429,4.941,44.833,9.936,67.253,14.913c10.161,2.256,21.016,4.178,30.498,8.636c3.384,1.591,8.321,3.818,10.755,6.724
	C384.153,131.437,383.019,138.361,382.584,144.461z"/>
<path d="M276.25,214.274c2.438-9.746,0.681-23.438-1.899-32.132c-3.128-10.541-11.848-20.751-23.966-18.965
	c-12.227,1.801-19.065,12.871-23.126,23.414c-2.408,6.251-4.327,15.072-1.796,21.5c-15.168,5.025-29.3,16.075-39.694,26.991
	c-13.611,14.294-21.983,34.214-20.29,53.982c0.01,2.912,0.14,5.837,0.412,8.768c1.988,21.457,10.007,41.717,26.056,56.498
	c15.202,14.001,37.457,25.013,58.411,25.067c21.785,0.056,41.334-13.997,54.863-30.017c15.453-18.3,21.331-41.324,18.655-64.988
	C320.751,256.756,301.744,228.342,276.25,214.274z M236.188,199.23c1.636-8.118,5.011-18.402,12.613-22.811
	c11.118-6.448,15.569,8.958,16.401,17.306c0.482,4.832-0.619,10.226-0.685,15.307c-8.161-2.844-16.774-4.219-25.599-3.668
	c-1.132,0.071-2.261,0.196-3.389,0.348C235.707,203.428,235.803,201.143,236.188,199.23z M264.522,363.038
	c-18.486,7.506-39.524-1.02-55.525-10.849c-16.426-10.09-27.233-26.231-31.451-44.951c-4.556-20.226-2.865-41.882,9.021-59.317
	c0.169-0.248,0.35-0.477,0.521-0.723c9.835-11.215,21.663-19.751,35.424-25.495c35.639-14.879,70.691,16.521,84.062,47.559
	C322.181,305.488,299.555,348.814,264.522,363.038z"/>
<path d="M237.773,266.795c-5.154-5.52-11.25-11.467-19.591-9.82c-5.427,1.071-8.429,5.011-10.118,9.647
	c-3.343,5.276-4.471,12.332-4.293,18.471c0.442,15.253,7.895,29.002,16.516,41.147c5.162,7.273,12.37,14.34,21.856,10.961
	c21.292-7.584,41.926-41.555,38.958-63.687C277.478,246.497,250.07,248.907,237.773,266.795z M272.746,282.076
	c-1.996,13.909-11.206,28.303-20.867,38.166c-7.073,7.221-15.677,13.379-24.05,3.833c-5.306-6.05-10.171-13.593-13.305-20.969
	c-3.23-7.603-5.356-15.663-4.463-23.978c0.774-7.203,3.552-13.153,11.364-14.126c0.808-0.1,1.582-0.124,2.341-0.113
	c0.352,0.125,0.705,0.245,1.063,0.416c5.145,2.449,7.311,6.443,10.992,10.391c1.589,1.704,4.82,1.357,5.906-0.761
	c3.339-6.516,7.298-11.447,14.754-13.472C269.654,257.884,274.198,271.953,272.746,282.076z"/>
<g>
</g>
<g>
</g>
<g>
</g>
<g>
</g>
<g>
</g>
<g>
</g>
<g>
</g>
<g>
</g>
<g>
</g>
<g>
</g>
<g>
</g>
<g>
</g>
<g>
</g>
<g>
</g>
<g>
</g>
</svg>
