<svg id="icons" enable-background="new 0 0 64 64" height="512" viewBox="0 0 64 64" width="512" xmlns="http://www.w3.org/2000/svg"><path d="m59.995 1h-55.99c-1.1 0-2 .9-2 2v25c0 1.1.9 2 2 2h.739 1.251 2.26 3.45.279 40.03.28 3.44 3.759.501c1.1 0 2-.9 2-2v-25c.001-1.1-.899-2-1.999-2z" fill="#e6e9ed"/><g fill="#fff"><path d="m15.984 25.01v.99h-2-.989v-3h3v1.811c-.011.059-.011.128-.011.199z"/><path d="m5.995 23h3v3h-3z"/><path d="m47.995 11h3v3h-3z"/><path d="m47.995 17h3v3h-3z"/><path d="m54.995 23h3v3h-3z"/><path d="m50.995 23v3h-.98-2v-.99c0-.09-.01-.18-.02-.27v-1.74z"/><path d="m56.495 5c.83 0 1.5.67 1.5 1.5s-.67 1.5-1.5 1.5c-.82 0-1.5-.67-1.5-1.5s.68-1.5 1.5-1.5z"/><path d="m7.495 5c.83 0 1.5.67 1.5 1.5s-.67 1.5-1.5 1.5c-.82 0-1.5-.67-1.5-1.5s.68-1.5 1.5-1.5z"/><path d="m14.495 5c.83 0 1.5.67 1.5 1.5s-.67 1.5-1.5 1.5c-.82 0-1.5-.67-1.5-1.5s.68-1.5 1.5-1.5z"/><path d="m43.995 23v3h-1.98-20.031-1.989v-3z"/><path d="m5.995 11h3v3h-3z"/><path d="m12.995 11h3v3h-3z"/><path d="m5.995 17h10v3h-10z"/><path d="m21.495 5c.83 0 1.5.67 1.5 1.5s-.67 1.5-1.5 1.5c-.82 0-1.5-.67-1.5-1.5s.68-1.5 1.5-1.5z"/><path d="m19.995 11h3v3h-3z"/><path d="m19.995 17h3v3h-3z"/><path d="m28.495 5c.83 0 1.5.67 1.5 1.5s-.67 1.5-1.5 1.5c-.82 0-1.5-.67-1.5-1.5s.68-1.5 1.5-1.5z"/><path d="m35.495 5c.83 0 1.5.67 1.5 1.5s-.67 1.5-1.5 1.5c-.82 0-1.5-.67-1.5-1.5s.68-1.5 1.5-1.5z"/><path d="m33.995 11h3v3h-3z"/><path d="m26.995 11h3v3h-3z"/><path d="m26.995 17h3v3h-3z"/><path d="m33.995 17h3v3h-3z"/><path d="m40.995 11h3v3h-3z"/><path d="m40.995 17h3v3h-3z"/><path d="m54.995 11h3v9h-3z"/><path d="m49.495 5c.83 0 1.5.67 1.5 1.5s-.67 1.5-1.5 1.5c-.82 0-1.5-.67-1.5-1.5s.68-1.5 1.5-1.5z"/><path d="m42.495 5c.83 0 1.5.67 1.5 1.5s-.67 1.5-1.5 1.5c-.82 0-1.5-.67-1.5-1.5s.68-1.5 1.5-1.5z"/></g><path d="m54.015 60v3h-12v-3h.98 10z" fill="#656d78"/><path d="m52.995 57v3h-10v-3h1.01 8.01z" fill="#e6e9ed"/><path d="m37.365 38.48 2.65 2.529v-11.009-1.99c0-1.109.89-2 1.999-2 1.101 0 2 .891 2 2v-3c0-1.109.891-2 2-2 1.011 0 1.851.75 1.98 1.73v1.26h.02v2.01c0-1.109.891-2 2-2 1.101 0 2 .891 2 2v3c0-1.109.891-2 2-2 .73 0 1.381.391 1.721.99.18.3.279.641.279 1.01v16c0 2.96-1.609 5.54-4 6.931v3.059h-8.01v-3.19c-1.22-.779-2.25-1.88-3.08-3.1l-6.39-9.4c-.61-.899-.78-2.05 0-2.829.78-.781 2.021-.751 2.831-.001z" fill="#eac6bb"/><path d="m20.995 57v3h-10v-3h.989 8.011z" fill="#e6e9ed"/><path d="m29.465 41.31-6.39 9.4c-.83 1.22-1.86 2.32-3.08 3.1v3.19h-8.011v-3.06c-2.389-1.391-4-3.971-4-6.931v-16c0-.369.101-.71.271-1.01.351-.6 1-.99 1.729-.99 1.111 0 2 .891 2 2v-3c0-1.109.9-2 2-2 1.111 0 2 .891 2 2v-2.009h.011v-1.189c.101-1.021.96-1.801 1.989-1.801 1.111 0 2 .891 2 2v.99 2.01c0-1.109.9-2 2-2 1.111 0 2 .891 2 2v1.99 11.01l2.65-2.529c.811-.75 2.051-.78 2.83 0 .781.779.611 1.929.001 2.829z" fill="#eac6bb"/><path d="m20.995 60h1v3h-12v-3h1z" fill="#656d78"/><path d="m56.013 32.006c-.553 0-1-.448-1-1 0-.551-.448-1-1-1s-1 .448-1 1-.447 1-1 1-1-.448-1-1c0-1.654 1.346-3 3-3s3 1.346 3 3c0 .552-.448 1-1 1z"/><path d="m56.013 48.007c-.553 0-1-.447-1-1v-16.001c0-.552.447-1 1-1s1 .448 1 1v16.001c0 .553-.448 1-1 1z"/><path d="m52.013 39.007c-.553 0-1-.447-1-1v-10c0-.552.447-1 1-1s1 .448 1 1v10c0 .553-.448 1-1 1z"/><path d="m52.013 29.007c-.553 0-1-.448-1-1 0-.551-.448-1-1-1s-1 .449-1 1c0 .552-.447 1-1 1s-1-.448-1-1c0-1.654 1.346-3 3-3s3 1.346 3 3c0 .552-.448 1-1 1z"/><path d="m40.013 42.007c-.553 0-1-.447-1-1v-13c0-.552.447-1 1-1s1 .448 1 1v13c0 .553-.448 1-1 1z"/><path d="m44.013 29.007c-.553 0-1-.448-1-1 0-.551-.448-1-1-1s-1 .449-1 1c0 .552-.447 1-1 1s-1-.448-1-1c0-1.654 1.346-3 3-3s3 1.346 3 3c0 .552-.448 1-1 1z"/><path d="m48.013 39.007c-.553 0-1-.447-1-1v-13c0-.552.447-1 1-1s1 .448 1 1v13c0 .553-.448 1-1 1z"/><path d="m48.013 26.007c-.553 0-1-.448-1-1 0-.551-.448-1-1-1s-1 .449-1 1c0 .552-.447 1-1 1s-1-.448-1-1c0-1.654 1.346-3 3-3s3 1.346 3 3c0 .552-.448 1-1 1z"/><path d="m44.013 39.007c-.553 0-1-.447-1-1v-13c0-.552.447-1 1-1s1 .448 1 1v13c0 .553-.448 1-1 1z"/><path d="m52.014 54.937c-.346 0-.681-.179-.866-.499-.277-.478-.113-1.09.364-1.366 2.159-1.25 3.501-3.574 3.501-6.064 0-.553.447-1 1-1s1 .447 1 1c0 3.202-1.724 6.188-4.499 7.795-.159.091-.33.134-.5.134z"/><path d="m44.004 54.808c-.184 0-.37-.051-.537-.157-1.259-.804-2.394-1.939-3.372-3.377-.312-.456-.193-1.078.264-1.389.454-.313 1.078-.193 1.389.264.826 1.212 1.767 2.159 2.796 2.816.466.297.602.915.305 1.381-.192.299-.515.462-.845.462z"/><path d="m34.537 42.308c-.319 0-.634-.153-.827-.438-.979-1.438-.933-3.046.119-4.098 1.149-1.15 3.002-1.16 4.218-.023.403.377.425 1.01.048 1.413-.377.404-1.012.425-1.413.048-.424-.396-1.056-.406-1.438-.023-.533.533.006 1.392.119 1.559.312.456.193 1.078-.264 1.389-.172.116-.369.173-.562.173z"/><path d="m40.922 51.711c-.32 0-.635-.153-.828-.438l-6.385-9.403c-.311-.457-.191-1.078.266-1.389.456-.312 1.078-.192 1.389.266l6.385 9.403c.311.457.191 1.078-.266 1.389-.172.116-.368.172-.561.172z"/><path d="m40.013 42.007c-.248 0-.497-.092-.69-.276l-2.648-2.527c-.399-.382-.414-1.015-.033-1.414.382-.399 1.016-.414 1.414-.033l2.648 2.527c.399.382.414 1.015.033 1.414-.197.205-.461.309-.724.309z"/><path d="m11.987 32.006c-.553 0-1-.448-1-1 0-.551-.448-1-1-1s-1 .448-1 1-.447 1-1 1-1-.448-1-1c0-1.654 1.346-3 3-3s3 1.346 3 3c0 .552-.447 1-1 1z"/><path d="m7.987 48.007c-.553 0-1-.447-1-1v-16.001c0-.552.447-1 1-1s1 .448 1 1v16.001c0 .553-.447 1-1 1z"/><path d="m11.987 39.007c-.553 0-1-.447-1-1v-10c0-.552.447-1 1-1s1 .448 1 1v10c0 .553-.447 1-1 1z"/><path d="m15.987 29.007c-.553 0-1-.448-1-1 0-.551-.448-1-1-1s-1 .449-1 1c0 .552-.447 1-1 1s-1-.448-1-1c0-1.654 1.346-3 3-3s3 1.346 3 3c0 .552-.447 1-1 1z"/><path d="m23.987 42.007c-.553 0-1-.447-1-1v-13c0-.552.447-1 1-1s1 .448 1 1v13c0 .553-.447 1-1 1z"/><path d="m23.987 29.007c-.553 0-1-.448-1-1 0-.551-.448-1-1-1s-1 .449-1 1c0 .552-.447 1-1 1s-1-.448-1-1c0-1.654 1.346-3 3-3s3 1.346 3 3c0 .552-.447 1-1 1z"/><path d="m15.987 39.007c-.553 0-1-.447-1-1v-13c0-.552.447-1 1-1s1 .448 1 1v13c0 .553-.447 1-1 1z"/><path d="m19.987 26.007c-.553 0-1-.448-1-1 0-.551-.448-1-1-1s-1 .449-1 1c0 .552-.447 1-1 1s-1-.448-1-1c0-1.654 1.346-3 3-3s3 1.346 3 3c0 .552-.447 1-1 1z"/><path d="m19.987 39.007c-.553 0-1-.447-1-1v-13c0-.552.447-1 1-1s1 .448 1 1v13c0 .553-.447 1-1 1z"/><path d="m11.986 54.937c-.17 0-.342-.043-.5-.135-2.775-1.606-4.499-4.593-4.499-7.795 0-.553.447-1 1-1s1 .447 1 1c0 2.49 1.342 4.814 3.501 6.064.478.276.642.889.364 1.366-.185.321-.52.5-.866.5z"/><path d="m19.996 54.808c-.33 0-.653-.163-.844-.462-.297-.466-.161-1.084.305-1.381 1.029-.657 1.97-1.604 2.796-2.816.311-.456.934-.576 1.389-.264.457.311.575.933.264 1.389-.979 1.438-2.113 2.573-3.372 3.377-.168.106-.354.157-.538.157z"/><path d="m29.463 42.308c-.193 0-.39-.057-.562-.174-.457-.311-.575-.933-.264-1.389.113-.167.652-1.025.119-1.559-.382-.383-1.014-.372-1.438.023-.4.378-1.034.357-1.413-.048-.377-.403-.355-1.036.048-1.413 1.215-1.137 3.067-1.127 4.218.023 1.052 1.052 1.099 2.66.119 4.098-.193.285-.508.439-.827.439z"/><path d="m23.078 51.711c-.193 0-.389-.056-.561-.173-.457-.311-.576-.932-.266-1.389l6.385-9.403c.311-.457.934-.576 1.389-.266.457.311.576.932.266 1.389l-6.385 9.403c-.193.286-.508.439-.828.439z"/><path d="m23.987 42.007c-.264 0-.527-.104-.724-.31-.381-.399-.366-1.032.033-1.414l2.648-2.527c.398-.381 1.033-.367 1.414.033.381.399.366 1.032-.033 1.414l-2.648 2.527c-.193.185-.442.277-.69.277z"/><path d="m21 57.997h-10c-.553 0-1-.447-1-1s.447-1 1-1h10c.553 0 1 .447 1 1s-.447 1-1 1z"/><path d="m22 61.004h-12c-.553 0-1-.447-1-1s.447-1 1-1h12c.553 0 1 .447 1 1s-.447 1-1 1z"/><path d="m11 60.996c-.553 0-1-.447-1-1v-2.999c0-.553.447-1 1-1s1 .447 1 1v2.999c0 .553-.447 1-1 1z"/><path d="m21 60.996c-.553 0-1-.447-1-1v-2.999c0-.553.447-1 1-1s1 .447 1 1v2.999c0 .553-.447 1-1 1z"/><path d="m52.999 57.997h-10c-.553 0-1-.447-1-1s.447-1 1-1h10c.553 0 1 .447 1 1s-.447 1-1 1z"/><path d="m52.999 60.996c-.553 0-1-.447-1-1v-2.999c0-.553.447-1 1-1s1 .447 1 1v2.999c0 .553-.447 1-1 1z"/><path d="m42.999 60.996c-.553 0-1-.447-1-1v-2.999c0-.553.447-1 1-1s1 .447 1 1v2.999c0 .553-.447 1-1 1z"/><path d="m11.987 57.998c-.553 0-1-.447-1-1v-3.062c0-.553.447-1 1-1s1 .447 1 1v3.062c0 .553-.447 1-1 1z"/><path d="m19.995 57.998c-.553 0-1-.447-1-1v-3.19c0-.553.447-1 1-1s1 .447 1 1v3.19c0 .553-.447 1-1 1z"/><path d="m52.013 57.998c-.553 0-1-.447-1-1v-3.062c0-.553.447-1 1-1s1 .447 1 1v3.062c0 .553-.448 1-1 1z"/><path d="m44.005 57.998c-.553 0-1-.447-1-1v-3.19c0-.553.447-1 1-1s1 .447 1 1v3.19c0 .553-.447 1-1 1z"/><path d="m10 64c-.553 0-1-.447-1-1v-2.996c0-.553.447-1 1-1s1 .447 1 1v2.996c0 .553-.447 1-1 1z"/><path d="m22 64c-.553 0-1-.447-1-1v-2.996c0-.553.447-1 1-1s1 .447 1 1v2.996c0 .553-.447 1-1 1z"/><path d="m54.013 61.004h-12c-.553 0-1-.447-1-1s.447-1 1-1h12c.553 0 1 .447 1 1s-.448 1-1 1z"/><path d="m42.013 64c-.553 0-1-.447-1-1v-2.996c0-.553.447-1 1-1s1 .447 1 1v2.996c0 .553-.448 1-1 1z"/><path d="m54.013 64c-.553 0-1-.447-1-1v-2.996c0-.553.447-1 1-1s1 .447 1 1v2.996c0 .553-.448 1-1 1z"/><path d="m59.999 30.996h-4.263c-.553 0-1-.448-1-1s.447-1 1-1h4.263c.552 0 1-.449 1-1v-24.996c0-.551-.448-1-1-1h-55.998c-.552 0-1 .449-1 1v24.996c0 .551.448 1 1 1h4.255c.553 0 1 .448 1 1s-.447 1-1 1h-4.255c-1.654 0-3-1.346-3-3v-24.996c0-1.654 1.346-3 3-3h55.998c1.654 0 3 1.346 3 3v24.996c0 1.654-1.346 3-3 3z"/><path d="m40.013 30.996h-16.013c-.553 0-1-.448-1-1s.447-1 1-1h16.013c.553 0 1 .448 1 1s-.448 1-1 1z"/><path d="m9 14.999h-3c-.553 0-1-.448-1-1v-3c0-.552.447-1 1-1h3c.553 0 1 .448 1 1v3c0 .552-.447 1-1 1zm-2-2h1v-1h-1z"/><path d="m16 14.999h-3c-.553 0-1-.448-1-1v-3c0-.552.447-1 1-1h3c.553 0 1 .448 1 1v3c0 .552-.447 1-1 1zm-2-2h1v-1h-1z"/><path d="m23 14.999h-3c-.553 0-1-.448-1-1v-3c0-.552.447-1 1-1h3c.553 0 1 .448 1 1v3c0 .552-.447 1-1 1zm-2-2h1v-1h-1z"/><path d="m30 14.999h-3c-.553 0-1-.448-1-1v-3c0-.552.447-1 1-1h3c.553 0 1 .448 1 1v3c0 .552-.447 1-1 1zm-2-2h1v-1h-1z"/><path d="m37 14.999h-3c-.553 0-1-.448-1-1v-3c0-.552.447-1 1-1h3c.553 0 1 .448 1 1v3c0 .552-.447 1-1 1zm-2-2h1v-1h-1z"/><path d="m44 14.999h-3c-.553 0-1-.448-1-1v-3c0-.552.447-1 1-1h3c.553 0 1 .448 1 1v3c0 .552-.447 1-1 1zm-2-2h1v-1h-1z"/><path d="m51 14.999h-3c-.553 0-1-.448-1-1v-3c0-.552.447-1 1-1h3c.553 0 1 .448 1 1v3c0 .552-.447 1-1 1zm-2-2h1v-1h-1z"/><path d="m16 20.999h-10c-.553 0-1-.448-1-1v-3c0-.552.447-1 1-1h10c.553 0 1 .448 1 1v3c0 .552-.447 1-1 1zm-9-2h8v-1h-8z"/><path d="m23 20.999h-3c-.553 0-1-.448-1-1v-3c0-.552.447-1 1-1h3c.553 0 1 .448 1 1v3c0 .552-.447 1-1 1zm-2-2h1v-1h-1z"/><path d="m30 20.999h-3c-.553 0-1-.448-1-1v-3c0-.552.447-1 1-1h3c.553 0 1 .448 1 1v3c0 .552-.447 1-1 1zm-2-2h1v-1h-1z"/><path d="m37 20.999h-3c-.553 0-1-.448-1-1v-3c0-.552.447-1 1-1h3c.553 0 1 .448 1 1v3c0 .552-.447 1-1 1zm-2-2h1v-1h-1z"/><path d="m44 20.999h-3c-.553 0-1-.448-1-1v-3c0-.552.447-1 1-1h3c.553 0 1 .448 1 1v3c0 .552-.447 1-1 1zm-2-2h1v-1h-1z"/><path d="m51 20.999h-3c-.553 0-1-.448-1-1v-3c0-.552.447-1 1-1h3c.553 0 1 .448 1 1v3c0 .552-.447 1-1 1zm-2-2h1v-1h-1z"/><path d="m58 20.999h-3c-.553 0-1-.448-1-1v-9c0-.552.447-1 1-1h3c.553 0 1 .448 1 1v9c0 .552-.447 1-1 1zm-2-2h1v-7h-1z"/><path d="m9 26.997h-3c-.553 0-1-.448-1-1v-3c0-.552.447-1 1-1h3c.553 0 1 .448 1 1v3c0 .552-.447 1-1 1zm-2-2h1v-1h-1z"/><path d="m16 26.997h-3c-.553 0-1-.448-1-1v-3c0-.552.447-1 1-1h3c.553 0 1 .448 1 1v3c0 .552-.447 1-1 1zm-2-2h1v-1h-1z"/><path d="m44 26.997h-24.001c-.553 0-1-.448-1-1v-3c0-.552.447-1 1-1h24.001c.553 0 1 .448 1 1v3c0 .552-.447 1-1 1zm-23.001-2h22.001v-1h-22.001z"/><path d="m51 26.997h-3c-.553 0-1-.448-1-1v-3c0-.552.447-1 1-1h3c.553 0 1 .448 1 1v3c0 .552-.447 1-1 1zm-2-2h1v-1h-1z"/><path d="m58 26.997h-3c-.553 0-1-.448-1-1v-3c0-.552.447-1 1-1h3c.553 0 1 .448 1 1v3c0 .552-.447 1-1 1zm-2-2h1v-1h-1z"/><path d="m7.5 9c-1.379 0-2.5-1.122-2.5-2.5s1.121-2.5 2.5-2.5 2.5 1.121 2.5 2.5-1.121 2.5-2.5 2.5zm0-3c-.275 0-.5.224-.5.5s.225.5.5.5.5-.225.5-.5-.225-.5-.5-.5z"/><path d="m14.5 9c-1.379 0-2.5-1.122-2.5-2.5s1.121-2.5 2.5-2.5 2.5 1.121 2.5 2.5-1.121 2.5-2.5 2.5zm0-3c-.275 0-.5.224-.5.5s.225.5.5.5.5-.225.5-.5-.225-.5-.5-.5z"/><path d="m21.5 9c-1.379 0-2.5-1.122-2.5-2.5s1.121-2.5 2.5-2.5 2.5 1.121 2.5 2.5-1.121 2.5-2.5 2.5zm0-3c-.275 0-.5.224-.5.5s.225.5.5.5.5-.225.5-.5-.225-.5-.5-.5z"/><path d="m28.5 9c-1.379 0-2.5-1.122-2.5-2.5s1.121-2.5 2.5-2.5 2.5 1.121 2.5 2.5-1.121 2.5-2.5 2.5zm0-3c-.275 0-.5.224-.5.5s.225.5.5.5.5-.225.5-.5-.225-.5-.5-.5z"/><path d="m35.5 9c-1.379 0-2.5-1.122-2.5-2.5s1.121-2.5 2.5-2.5 2.5 1.121 2.5 2.5-1.121 2.5-2.5 2.5zm0-3c-.275 0-.5.224-.5.5s.225.5.5.5.5-.225.5-.5-.225-.5-.5-.5z"/><path d="m42.5 9c-1.379 0-2.5-1.122-2.5-2.5s1.121-2.5 2.5-2.5 2.5 1.121 2.5 2.5-1.121 2.5-2.5 2.5zm0-3c-.275 0-.5.224-.5.5s.225.5.5.5.5-.225.5-.5-.225-.5-.5-.5z"/><path d="m49.5 9c-1.379 0-2.5-1.122-2.5-2.5s1.121-2.5 2.5-2.5 2.5 1.121 2.5 2.5-1.121 2.5-2.5 2.5zm0-3c-.275 0-.5.224-.5.5s.225.5.5.5.5-.225.5-.5-.225-.5-.5-.5z"/><path d="m56.5 9c-1.379 0-2.5-1.122-2.5-2.5s1.121-2.5 2.5-2.5 2.5 1.121 2.5 2.5-1.121 2.5-2.5 2.5zm0-3c-.275 0-.5.224-.5.5s.225.5.5.5.5-.225.5-.5-.225-.5-.5-.5z"/></svg>